Coordinates
version=1
nRows=5
nColumns=40
inDegrees=yes

Units are S.I. units (second, meters, Newtons, ...)
If the header above contains a line with 'inDegrees', this indicates whether rotational values are in degrees (yes) or radians (no).

endheader
time	pelvis_tilt	pelvis_list	pelvis_rotation	pelvis_tx	pelvis_ty	pelvis_tz	hip_flexion_r	hip_adduction_r	hip_rotation_r	knee_angle_r	knee_angle_r_beta	ankle_angle_r	subtalar_angle_r	mtp_angle_r	hip_flexion_l	hip_adduction_l	hip_rotation_l	knee_angle_l	knee_angle_l_beta	ankle_angle_l	subtalar_angle_l	mtp_angle_l	lumbar_extension	lumbar_bending	lumbar_rotation	arm_flex_r	arm_add_r	arm_rot_r	elbow_flex_r	pro_sup_r	wrist_flex_r	wrist_dev_r	arm_flex_l	arm_add_l	arm_rot_l	elbow_flex_l	pro_sup_l	wrist_flex_l	wrist_dev_l
      5.59999999999999964473	     45.15731876257492416471	     -1.02090232392754387547	   -177.02784007420819989420	      0.40541192589687929937	      0.70621860789855273044	     -0.58322456736715966308	     93.78601599406462696606	    -15.83812975428106462061	      7.64106677702956105236	     52.35731765981348218020	      0.91380758067631762120	      7.59723912283065150319	      0.00000000000000000000	      0.00000000000000000000	     92.84030288809883302292	    -10.83281832129552313404	      2.20893929731847515896	     53.07538314859437633686	      0.92634018770048665026	      8.39105586841393602526	      0.00000000000000000000	      0.00000000000000000000	    -41.52442142591161200471	     -2.01522148017472924053	      2.03194947077305609895	     64.08301374907330227870	    -27.45316857324072046254	     48.31939472474611818598	     27.33818385797113847957	     64.59742559350704027565	      0.00000000000000000000	      0.00000000000000000000	     71.13975277022069576560	      0.08849749484375499242	      3.15607902231464398923	     13.70445755303109081069	     19.77011255461474448225	      0.00000000000000000000	      0.00000000000000000000
      5.60500000000000042633	     45.17565645178615341138	     -1.03772380413293241475	   -176.94202520200801131978	      0.40525557696946373776	      0.70697084718782032819	     -0.58285086270264085950	     93.68855122113242828163	    -15.96163905119659709442	      7.59739647455450395341	     52.18922888798761050566	      0.91087387817232268183	      7.51980898166872613331	      0.00000000000000000000	      0.00000000000000000000	     92.70509676439277768623	    -10.72216304356815541610	      2.13941365867283339597	     52.85696514240379428884	      0.92252807434681971532	      8.24894143926002776368	      0.00000000000000000000	      0.00000000000000000000	    -41.61664088825974516794	     -1.97549970549545772514	      1.94852710293418529552	     63.68238208793220422876	    -27.22640622321881664902	     46.58610295760620090277	     27.58773912323537302882	     63.36121284425547628416	      0.00000000000000000000	      0.00000000000000000000	     71.17483795300447013688	      0.00473483193004755644	      3.78214510534647407880	     13.57360331267854114401	     21.26174525406696247387	      0.00000000000000000000	      0.00000000000000000000
      5.61000000000000031974	     45.16164538045064347216	     -1.08496632641760082372	   -177.01145862070035263969	      0.40509846768128748851	      0.70779111225891311321	     -0.58277430888632486550	     93.50918215071442318731	    -15.88273635088368607171	      7.64456407424703865416	     51.91895231233774410384	      0.90615666203621703101	      7.48878594961501331539	      0.00000000000000000000	      0.00000000000000000000	     92.54147166635652865807	    -10.80043770023916671619	      1.99782187095823449141	     52.68203642382650997433	      0.91947499225135143064	      8.24936835771815069052	      0.00000000000000000000	      0.00000000000000000000	    -41.73937833233544836276	     -2.03599980957746629073	      1.92235268819663085438	     64.11694117095433398390	    -27.46841734834063686321	     48.20159412235148010950	     27.49716712850172584126	     64.65786325661372302420	      0.00000000000000000000	      0.00000000000000000000	     71.20749878887771444624	      0.00767598697031142852	      3.28591908283968203719	     13.70379141952787449554	     20.77754475673055623020	      0.00000000000000000000	      0.00000000000000000000
      5.61500000000000021316	     45.12920194513522176294	     -1.05626420140840693307	   -176.92489870142802033115	      0.40490505598003773136	      0.70858658622357939549	     -0.58237469176769263157	     93.33541687571299405590	    -16.00875316976820172954	      7.54644479386695099521	     51.76139687117346710465	      0.90340680083346813767	      7.40530752427864413789	      0.00000000000000000000	      0.00000000000000000000	     92.37867926159938747332	    -10.68507704733938901143	      1.97129690644200206151	     52.47748985819259814889	      0.91590498120739305410	      8.14912211351016857463	      0.00000000000000000000	      0.00000000000000000000	    -41.86942011169322341857	     -1.95043031083645601598	      1.89819789464106492005	     63.78748415720374964621	    -27.24261648350561060283	     46.65520962530810322733	     27.61027593799474644243	     63.49498944994913784967	      0.00000000000000000000	      0.00000000000000000000	     71.23035858337817671782	      0.00672606235816846417	      3.74794062047133280657	     13.58922630579334089873	     21.99670781756898918502	      0.00000000000000000000	      0.00000000000000000000
      5.62000000000000010658	     45.12184537225964220397	     -1.03272702440228592025	   -176.88766387838177251979	      0.40477948436722693826	      0.70933245903779229558	     -0.58206943662545573837	     93.17978710683327392417	    -16.07369968412234229049	      7.45173264021698766868	     51.56542087012897468412	      0.89998637436035000547	      7.34842534081864151574	      0.00000000000000000000	      0.00000000000000000000	     92.25229003255908821757	    -10.63295112132812825223	      1.94162129937734317942	     52.30036335293427640636	      0.91281354049808427487	      8.07937638737769070474	      0.00000000000000000000	      0.00000000000000000000	    -41.97323419726942717034	     -1.91218957982390369565	      1.89256279638719493441	     63.52018428158505969350	    -27.02799640277782344810	     45.38881992386342290047	     27.65528580603198705035	     62.48103383295696033883	      0.00000000000000000000	      0.00000000000000000000	     71.25569517889525172905	     -0.04397496564396886215	      4.15959730869906163520	     13.54613628865709884508	     23.12121540225236415722	      0.00000000000000000000	      0.00000000000000000000
